<?xml version="1.0" encoding="utf-8"?>
<!-- Generator: Adobe Illustrator 16.0.0, SVG Export Plug-In . SVG Version: 6.00 Build 0)  -->
<!DOCTYPE svg PUBLIC "-//W3C//DTD SVG 1.1//EN" "http://www.w3.org/Graphics/SVG/1.1/DTD/svg11.dtd">
<svg version="1.1" id="Layer_1" xmlns="http://www.w3.org/2000/svg" xmlns:xlink="http://www.w3.org/1999/xlink" x="0px" y="0px"
	 width="1120px" height="759px" viewBox="0 0 1120 759" enable-background="new 0 0 1120 759" xml:space="preserve">
<g id="Layer_65" display="none">
	
		<linearGradient id="SVGID_1_" gradientUnits="userSpaceOnUse" x1="-173.8403" y1="338.04" x2="1193.1597" y2="338.04" gradientTransform="matrix(1 0 0 -1 8.3398 735.04)">
		<stop  offset="0.0301" style="stop-color:#FCAF21"/>
		<stop  offset="0.4832" style="stop-color:#CCE0F4"/>
		<stop  offset="0.5215" style="stop-color:#C3DBF2"/>
		<stop  offset="0.5852" style="stop-color:#A9CEEB"/>
		<stop  offset="0.6665" style="stop-color:#80B8E0"/>
		<stop  offset="0.7622" style="stop-color:#469AD1"/>
		<stop  offset="0.8652" style="stop-color:#0075BE"/>
		<stop  offset="0.9944" style="stop-color:#005B97"/>
	</linearGradient>
	
		<rect x="-174.5" y="-52.5" display="inline" fill="url(#SVGID_1_)" stroke="#000000" stroke-miterlimit="10" width="1367" height="899"/>
</g>
<g id="vlist_ptrs">
	<g id="ptr1_copy_3">
		<circle fill="#B3B3B3" stroke="#B3B3B3" stroke-miterlimit="10" cx="450" cy="230" r="2"/>
		<g>
			<g>
				<g>
					<polygon fill="#B3B3B3" points="789.668,487.738 793.18,483.5 789.668,479.262 798.795,483.5 					"/>
				</g>
			</g>
			<g>
				<g>
					<polygon fill="#B3B3B3" points="789.668,487.738 793.18,483.5 789.668,479.262 798.795,483.5 					"/>
				</g>
			</g>
		</g>
		<polyline fill="none" stroke="#B3B3B3" stroke-miterlimit="10" points="792,483.5 769.5,483.5 450,230 		"/>
	</g>
	<g id="ptr1_copy_2">
		<circle fill="#B3B3B3" stroke="#B3B3B3" stroke-miterlimit="10" cx="404" cy="230" r="2"/>
		<g>
			<g>
				<g>
					<polygon fill="#B3B3B3" points="429.668,487.738 433.18,483.5 429.668,479.262 438.795,483.5 					"/>
				</g>
			</g>
			<g>
				<g>
					<polygon fill="#B3B3B3" points="429.668,487.738 433.18,483.5 429.668,479.262 438.795,483.5 					"/>
				</g>
			</g>
		</g>
		<polyline fill="none" stroke="#B3B3B3" stroke-miterlimit="10" points="436,483.5 413.5,483.5 404,230 		"/>
	</g>
	<g id="ptr1_copy">
		<circle fill="#B3B3B3" stroke="#B3B3B3" stroke-miterlimit="10" cx="358" cy="230" r="2"/>
		<g>
			<g>
				<g>
					<polygon fill="#B3B3B3" points="429.668,577.738 433.18,573.5 429.668,569.262 438.795,573.5 					"/>
				</g>
			</g>
			<g>
				<g>
					<polygon fill="#B3B3B3" points="429.668,577.738 433.18,573.5 429.668,569.262 438.795,573.5 					"/>
				</g>
			</g>
		</g>
		<polyline fill="none" stroke="#B3B3B3" stroke-miterlimit="10" points="433,573.5 367.5,573.5 358,230 		"/>
	</g>
	<g id="ptr1_1_">
		<circle fill="#B3B3B3" stroke="#B3B3B3" stroke-miterlimit="10" cx="312" cy="230" r="2"/>
		<g>
			<g>
				<g>
					<polygon fill="#B3B3B3" points="429.668,667.738 433.18,663.5 429.668,659.262 438.795,663.5 					"/>
				</g>
			</g>
			<g>
				<g>
					<polygon fill="#B3B3B3" points="429.668,667.738 433.18,663.5 429.668,659.262 438.795,663.5 					"/>
				</g>
			</g>
		</g>
		<polyline fill="none" stroke="#B3B3B3" stroke-miterlimit="10" points="434,663.5 321.75,663.5 312,230 		"/>
	</g>
</g>
<g id="ftrack4">
	<rect id="bloc_7_" x="799.5" y="453.5" fill="none" stroke="#000000" stroke-miterlimit="10" width="144" height="61"/>
	<g id="fileid_7_">
		<rect x="802.833" y="472.67" fill="none" width="66.167" height="8.833"/>
		<text transform="matrix(0.994 0 0 1 804.3584 479.1133)" font-family="'ArialMT'" font-size="9">identifiant fichier</text>
		<rect x="871.5" y="472.5" fill="none" stroke="#000000" stroke-miterlimit="10" width="63" height="9"/>
		<rect x="862" y="463.67" fill="none" width="73" height="8.833"/>
		<text transform="matrix(0.994 0 0 1 898.6631 468.6816)" font-family="'ArialMT'" font-size="7">ref(</text>
		<text transform="matrix(0.994 0 0 1 909.0986 468.6816)" font-family="'ArialMT'" font-size="7">SIZE_T</text>
		<text transform="matrix(0.994 0 0 1 932.6836 468.6816)" font-family="'ArialMT'" font-size="7">)</text>
	</g>
	<rect x="803.003" y="496.67" fill="none" width="65.997" height="8.833"/>
	<text transform="matrix(0.994 0 0 1 823.2549 503.1133)" font-family="'ArialMT'" font-size="9">occurences</text>
	<rect id="occurences_valeur_6_" x="871.5" y="496.5" fill="none" stroke="#000000" stroke-miterlimit="10" width="63" height="9"/>
	<rect x="799.916" y="487.67" fill="none" width="135.084" height="8.833"/>
	<text transform="matrix(0.994 0 0 1 837.5771 492.6816)" font-family="'ArialMT'" font-size="7">ref(</text>
	<text transform="matrix(0.994 0 0 1 848.0146 492.6816)" enable-background="new    "><tspan x="0" y="0" fill="#22B573" font-family="'ArialMT'" font-size="7">DYNA&lt;</tspan><tspan x="23.536" y="0" fill="#231F20" font-family="'ArialMT'" font-size="7">ref(LONG_INT)</tspan><tspan x="71.374" y="0" fill="#22B573" font-family="'ArialMT'" font-size="7">&gt;</tspan></text>
	<text transform="matrix(0.994 0 0 1 932.6855 492.6816)" font-family="'ArialMT'" font-size="7">)</text>
	<text transform="matrix(1 0 0 1 903.5 449.7529)" font-family="'ArialMT'" font-size="10">FTRACK</text>
	
		<text id="type_5_" transform="matrix(1 0 0 1 1093.0107 544.2529)" display="none" fill="#22B573" enable-background="new    " font-family="'ArialMT'" font-size="10">VECTOR</text>
	<g id="occurences_copy_3">
		<text transform="matrix(1 0 0 1 991.2754 502.6338)" font-family="'ArialMT'" font-size="8">3</text>
		<rect id="var0_7_" x="971.5" y="493.5" fill="none" stroke="#000000" stroke-miterlimit="10" width="44" height="14"/>
		<rect id="cell0_18_" x="970.5" y="492.5" fill="none" stroke="#22B573" stroke-miterlimit="10" width="46" height="16"/>
		<text transform="matrix(1 0 0 1 1037.2754 502.6338)" font-family="'ArialMT'" font-size="8">4</text>
		<rect id="var1_7_" x="1017.5" y="493.5" fill="none" stroke="#000000" stroke-miterlimit="10" width="44" height="14"/>
		<rect id="cell1_6_" x="1016.5" y="492.5" fill="none" stroke="#22B573" stroke-miterlimit="10" width="46" height="16"/>
	</g>
	<g id="arrow_occurences_copy_3">
		<circle fill="#22B573" stroke="#22B573" stroke-miterlimit="10" cx="903" cy="501" r="2"/>
		<g>
			<g>
				<g>
					<polygon fill="#22B573" points="960.668,504.738 964.18,500.5 960.668,496.262 969.795,500.5 					"/>
				</g>
			</g>
			<g>
				<g>
					<polygon fill="#22B573" points="960.668,504.738 964.18,500.5 960.668,496.262 969.795,500.5 					"/>
				</g>
			</g>
		</g>
		<line fill="none" stroke="#22B573" stroke-miterlimit="10" x1="903" y1="500.5" x2="964" y2="500.5"/>
	</g>
	<g id="arrow_fileid_copy_3">
		<circle stroke="#000000" stroke-miterlimit="10" cx="903" cy="477" r="2"/>
		<g>
			<g>
				<g>
					<polygon points="960.668,480.738 964.18,476.5 960.668,472.262 969.795,476.5 					"/>
				</g>
			</g>
			<g>
				<g>
					<polygon points="960.668,480.738 964.18,476.5 960.668,472.262 969.795,476.5 					"/>
				</g>
			</g>
		</g>
		<line fill="none" stroke="#000000" stroke-miterlimit="10" x1="903" y1="476.5" x2="964" y2="476.5"/>
	</g>
	<g id="fileid_copy_3">
		<text transform="matrix(1 0 0 1 982.6035 464.5)" font-family="'ArialMT'" font-size="10">SIZE_T</text>
		<text transform="matrix(1 0 0 1 991.2754 478.6338)" font-family="'ArialMT'" font-size="8">0</text>
		<rect id="cell0_29_" x="970.5" y="468.5" fill="none" stroke="#000000" stroke-miterlimit="10" width="46" height="16"/>
	</g>
</g>
<g id="ftrack3">
	<rect id="bloc_17_" x="439.5" y="633.5" fill="none" stroke="#000000" stroke-miterlimit="10" width="144" height="61"/>
	<g id="fileid_8_">
		<rect x="442.833" y="652.67" fill="none" width="66.167" height="8.833"/>
		<text transform="matrix(0.994 0 0 1 444.3574 659.1133)" font-family="'ArialMT'" font-size="9">identifiant fichier</text>
		<rect x="511.5" y="652.5" fill="none" stroke="#000000" stroke-miterlimit="10" width="63" height="9"/>
		<rect x="502" y="643.67" fill="none" width="73" height="8.833"/>
		<text transform="matrix(0.994 0 0 1 538.6621 648.6816)" font-family="'ArialMT'" font-size="7">ref(</text>
		<text transform="matrix(0.994 0 0 1 549.0996 648.6816)" font-family="'ArialMT'" font-size="7">SIZE_T</text>
		<text transform="matrix(0.994 0 0 1 572.6826 648.6816)" font-family="'ArialMT'" font-size="7">)</text>
	</g>
	<rect x="443.003" y="676.67" fill="none" width="65.997" height="8.833"/>
	<text transform="matrix(0.994 0 0 1 463.2539 683.1133)" font-family="'ArialMT'" font-size="9">occurences</text>
	<rect id="occurences_valeur_7_" x="511.5" y="676.5" fill="none" stroke="#000000" stroke-miterlimit="10" width="63" height="9"/>
	<rect x="439.917" y="667.67" fill="none" width="135.083" height="8.833"/>
	<text transform="matrix(0.994 0 0 1 489.1758 672.6816)" font-family="'ArialMT'" font-size="7">ref(</text>
	<text transform="matrix(0.994 0 0 1 499.6133 672.6816)" fill="#22B573" font-family="'ArialMT'" font-size="7">DYNA&lt;</text>
	<text transform="matrix(0.994 0 0 1 523.0078 672.6816)" font-family="'ArialMT'" font-size="7">ref(LONG INT)</text>
	<text transform="matrix(0.994 0 0 1 568.6211 672.6816)" fill="#22B573" font-family="'ArialMT'" font-size="7">&gt;</text>
	<text transform="matrix(0.994 0 0 1 572.6855 672.6816)" font-family="'ArialMT'" font-size="7">)</text>
	<text transform="matrix(1 0 0 1 543.5 629.7529)" font-family="'ArialMT'" font-size="10">FTRACK</text>
	
		<text id="type_8_" transform="matrix(1 0 0 1 753.0107 724.2529)" display="none" fill="#22B573" enable-background="new    " font-family="'ArialMT'" font-size="10">VECTOR</text>
	<g id="occurences_copy_2">
		<text transform="matrix(1 0 0 1 631.2754 682.6338)" font-family="'ArialMT'" font-size="8">1</text>
		<rect id="var0_9_" x="611.5" y="673.5" fill="none" stroke="#000000" stroke-miterlimit="10" width="44" height="14"/>
		<rect id="cell0_28_" x="610.5" y="672.5" fill="none" stroke="#22B573" stroke-miterlimit="10" width="46" height="16"/>
		<text transform="matrix(1 0 0 1 677.2754 682.6338)" font-family="'ArialMT'" font-size="8">2</text>
		<rect id="var1_9_" x="657.5" y="673.5" fill="none" stroke="#000000" stroke-miterlimit="10" width="44" height="14"/>
		<rect id="cell1_13_" x="656.5" y="672.5" fill="none" stroke="#22B573" stroke-miterlimit="10" width="46" height="16"/>
	</g>
	<g id="arrow_occurences_copy_2">
		<circle fill="#22B573" stroke="#22B573" stroke-miterlimit="10" cx="543" cy="681" r="2"/>
		<g>
			<g>
				<g>
					<polygon fill="#22B573" points="600.668,684.738 604.18,680.5 600.668,676.262 609.795,680.5 					"/>
				</g>
			</g>
			<g>
				<g>
					<polygon fill="#22B573" points="600.668,684.738 604.18,680.5 600.668,676.262 609.795,680.5 					"/>
				</g>
			</g>
		</g>
		<line fill="none" stroke="#22B573" stroke-miterlimit="10" x1="543" y1="680.5" x2="604" y2="680.5"/>
	</g>
	<g id="arrow_fileid_copy_2">
		<circle stroke="#000000" stroke-miterlimit="10" cx="543" cy="657" r="2"/>
		<g>
			<g>
				<g>
					<polygon points="600.668,660.738 604.18,656.5 600.668,652.262 609.795,656.5 					"/>
				</g>
			</g>
			<g>
				<g>
					<polygon points="600.668,660.738 604.18,656.5 600.668,652.262 609.795,656.5 					"/>
				</g>
			</g>
		</g>
		<line fill="none" stroke="#000000" stroke-miterlimit="10" x1="543" y1="656.5" x2="604" y2="656.5"/>
	</g>
	<g id="fileid_copy_2">
		<text transform="matrix(1 0 0 1 622.6035 644.5)" font-family="'ArialMT'" font-size="10">SIZE_T</text>
		<text transform="matrix(1 0 0 1 631.2754 658.6338)" font-family="'ArialMT'" font-size="8">0</text>
		<rect id="cell0_10_" x="610.5" y="648.5" fill="none" stroke="#000000" stroke-miterlimit="10" width="46" height="16"/>
	</g>
</g>
<g id="ftrack2">
	<rect id="bloc_4_" x="439.5" y="543.5" fill="none" stroke="#000000" stroke-miterlimit="10" width="144" height="61"/>
	<g id="fileid_3_">
		<rect x="442.833" y="562.67" fill="none" width="66.167" height="8.833"/>
		<text transform="matrix(0.994 0 0 1 444.3574 569.1133)" font-family="'ArialMT'" font-size="9">identifiant fichier</text>
		<rect x="511.5" y="562.5" fill="none" stroke="#000000" stroke-miterlimit="10" width="63" height="9"/>
		<rect x="502" y="553.67" fill="none" width="73" height="8.833"/>
		<text transform="matrix(0.994 0 0 1 538.6621 558.6816)" font-family="'ArialMT'" font-size="7">ref(</text>
		<text transform="matrix(0.994 0 0 1 549.0996 558.6816)" font-family="'ArialMT'" font-size="7">SIZE_T</text>
		<text transform="matrix(0.994 0 0 1 572.6826 558.6816)" font-family="'ArialMT'" font-size="7">)</text>
	</g>
	<rect x="443.003" y="586.67" fill="none" width="65.997" height="8.833"/>
	<text transform="matrix(0.994 0 0 1 463.2539 593.1133)" font-family="'ArialMT'" font-size="9">occurences</text>
	<rect id="occurences_valeur_3_" x="511.5" y="586.5" fill="none" stroke="#000000" stroke-miterlimit="10" width="63" height="9"/>
	<rect x="439.917" y="577.67" fill="none" width="135.083" height="8.833"/>
	<text transform="matrix(0.994 0 0 1 479.5137 582.6816)" font-family="'ArialMT'" font-size="7">ref(</text>
	<text transform="matrix(0.994 0 0 1 489.9512 582.6816)" fill="#22B573" font-family="'ArialMT'" font-size="7">VECTOR&lt;</text>
	<text transform="matrix(0.994 0 0 1 523.0078 582.6816)" font-family="'ArialMT'" font-size="7">ref(LONG INT)</text>
	<text transform="matrix(0.994 0 0 1 568.6221 582.6816)" fill="#22B573" font-family="'ArialMT'" font-size="7">&gt;</text>
	<text transform="matrix(0.994 0 0 1 572.6865 582.6816)" font-family="'ArialMT'" font-size="7">)</text>
	<text transform="matrix(1 0 0 1 543.5 539.7529)" font-family="'ArialMT'" font-size="10">FTRACK</text>
	
		<text id="type_3_" transform="matrix(1 0 0 1 753.0107 634.2529)" display="none" fill="#22B573" enable-background="new    " font-family="'ArialMT'" font-size="10">VECTOR</text>
	<g id="occurences_copy">
		<text transform="matrix(1 0 0 1 631.2754 592.6338)" font-family="'ArialMT'" font-size="8">1</text>
		<rect id="var0_3_" x="611.5" y="583.5" fill="none" stroke="#000000" stroke-miterlimit="10" width="44" height="14"/>
		<rect id="cell0_9_" x="610.5" y="582.5" fill="none" stroke="#22B573" stroke-miterlimit="10" width="46" height="16"/>
		<text transform="matrix(1 0 0 1 677.2754 592.6338)" font-family="'ArialMT'" font-size="8">3</text>
		<rect id="var1_3_" x="657.5" y="583.5" fill="none" stroke="#000000" stroke-miterlimit="10" width="44" height="14"/>
		<rect id="cell1_2_" x="656.5" y="582.5" fill="none" stroke="#22B573" stroke-miterlimit="10" width="46" height="16"/>
	</g>
	<g id="arrow_occurences_copy">
		<circle fill="#22B573" stroke="#22B573" stroke-miterlimit="10" cx="543" cy="591" r="2"/>
		<g>
			<g>
				<g>
					<polygon fill="#22B573" points="600.668,594.738 604.18,590.5 600.668,586.262 609.795,590.5 					"/>
				</g>
			</g>
			<g>
				<g>
					<polygon fill="#22B573" points="600.668,594.738 604.18,590.5 600.668,586.262 609.795,590.5 					"/>
				</g>
			</g>
		</g>
		<line fill="none" stroke="#22B573" stroke-miterlimit="10" x1="543" y1="590.5" x2="604" y2="590.5"/>
	</g>
	<g id="arrow_fileid_copy">
		<circle stroke="#000000" stroke-miterlimit="10" cx="543" cy="567" r="2"/>
		<g>
			<g>
				<g>
					<polygon points="600.668,570.738 604.18,566.5 600.668,562.262 609.795,566.5 					"/>
				</g>
			</g>
			<g>
				<g>
					<polygon points="600.668,570.738 604.18,566.5 600.668,562.262 609.795,566.5 					"/>
				</g>
			</g>
		</g>
		<line fill="none" stroke="#000000" stroke-miterlimit="10" x1="543" y1="566.5" x2="604" y2="566.5"/>
	</g>
	<g id="fileid_copy">
		<text transform="matrix(1 0 0 1 622.6035 554.5)" font-family="'ArialMT'" font-size="10">SIZE_T</text>
		<text transform="matrix(1 0 0 1 631.2754 568.6338)" font-family="'ArialMT'" font-size="8">1</text>
		<rect id="cell0_22_" x="610.5" y="558.5" fill="none" stroke="#000000" stroke-miterlimit="10" width="46" height="16"/>
	</g>
</g>
<g id="ftrack1">
	<rect id="bloc_14_" x="439.5" y="453.5" fill="none" stroke="#000000" stroke-miterlimit="10" width="144" height="61"/>
	<g id="fileid_4_">
		<rect x="442.833" y="472.67" fill="none" width="66.167" height="8.833"/>
		<text transform="matrix(0.994 0 0 1 444.3574 479.1133)" font-family="'ArialMT'" font-size="9">identifiant fichier</text>
		<rect x="511.5" y="472.5" fill="none" stroke="#000000" stroke-miterlimit="10" width="63" height="9"/>
		<rect x="502" y="463.67" fill="none" width="73" height="8.833"/>
		<text transform="matrix(0.994 0 0 1 538.6621 468.6816)" font-family="'ArialMT'" font-size="7">ref(</text>
		<text transform="matrix(0.994 0 0 1 549.0996 468.6816)" font-family="'ArialMT'" font-size="7">SIZE_T</text>
		<text transform="matrix(0.994 0 0 1 572.6826 468.6816)" font-family="'ArialMT'" font-size="7">)</text>
	</g>
	<rect x="443.003" y="496.67" fill="none" width="65.997" height="8.833"/>
	<text transform="matrix(0.994 0 0 1 463.2539 503.1133)" font-family="'ArialMT'" font-size="9">occurences</text>
	<rect id="occurences_valeur_2_" x="511.5" y="496.5" fill="none" stroke="#000000" stroke-miterlimit="10" width="63" height="9"/>
	<rect x="439.917" y="487.67" fill="none" width="135.083" height="8.833"/>
	<text transform="matrix(0.994 0 0 1 489.1758 492.6816)" font-family="'ArialMT'" font-size="7">ref(</text>
	<text transform="matrix(0.994 0 0 1 499.6133 492.6816)" fill="#22B573" font-family="'ArialMT'" font-size="7">DYNA&lt;</text>
	<text transform="matrix(0.994 0 0 1 523.0078 492.6816)" font-family="'ArialMT'" font-size="7">ref(LONG INT)</text>
	<text transform="matrix(0.994 0 0 1 568.6211 492.6816)" fill="#22B573" font-family="'ArialMT'" font-size="7">&gt;</text>
	<text transform="matrix(0.994 0 0 1 572.6855 492.6816)" font-family="'ArialMT'" font-size="7">)</text>
	<text transform="matrix(1 0 0 1 543.5 449.7529)" font-family="'ArialMT'" font-size="10">FTRACK</text>
	
		<text id="type_4_" transform="matrix(1 0 0 1 753.0107 544.2529)" display="none" fill="#22B573" enable-background="new    " font-family="'ArialMT'" font-size="10">VECTOR</text>
	<g id="occurences">
		<text transform="matrix(1 0 0 1 631.2754 502.6338)" font-family="'ArialMT'" font-size="8">1</text>
		<rect id="var0_5_" x="611.5" y="493.5" fill="none" stroke="#000000" stroke-miterlimit="10" width="44" height="14"/>
		<rect id="cell0_21_" x="610.5" y="492.5" fill="none" stroke="#22B573" stroke-miterlimit="10" width="46" height="16"/>
		<text transform="matrix(1 0 0 1 677.2754 502.6338)" font-family="'ArialMT'" font-size="8">2</text>
		<rect id="var1_5_" x="657.5" y="493.5" fill="none" stroke="#000000" stroke-miterlimit="10" width="44" height="14"/>
		<rect id="cell1_10_" x="656.5" y="492.5" fill="none" stroke="#22B573" stroke-miterlimit="10" width="46" height="16"/>
	</g>
	<g id="arrow_occurences">
		<circle fill="#22B573" stroke="#22B573" stroke-miterlimit="10" cx="543" cy="501" r="2"/>
		<g>
			<g>
				<g>
					<polygon fill="#22B573" points="600.668,504.738 604.18,500.5 600.668,496.262 609.795,500.5 					"/>
				</g>
			</g>
			<g>
				<g>
					<polygon fill="#22B573" points="600.668,504.738 604.18,500.5 600.668,496.262 609.795,500.5 					"/>
				</g>
			</g>
		</g>
		<line fill="none" stroke="#22B573" stroke-miterlimit="10" x1="543" y1="500.5" x2="604" y2="500.5"/>
	</g>
	<g id="arrow_fileid">
		<circle stroke="#000000" stroke-miterlimit="10" cx="543" cy="477" r="2"/>
		<g>
			<g>
				<g>
					<polygon points="600.668,480.738 604.18,476.5 600.668,472.262 609.795,476.5 					"/>
				</g>
			</g>
			<g>
				<g>
					<polygon points="600.668,480.738 604.18,476.5 600.668,472.262 609.795,476.5 					"/>
				</g>
			</g>
		</g>
		<line fill="none" stroke="#000000" stroke-miterlimit="10" x1="543" y1="476.5" x2="604" y2="476.5"/>
	</g>
	<g id="fileid_1_">
		<text transform="matrix(1 0 0 1 622.6035 464.5)" font-family="'ArialMT'" font-size="10">SIZE_T</text>
		<text transform="matrix(1 0 0 1 631.2754 478.6338)" font-family="'ArialMT'" font-size="8">2</text>
		<rect id="cell0_1_" x="610.5" y="468.5" fill="none" stroke="#000000" stroke-miterlimit="10" width="46" height="16"/>
	</g>
</g>
<g id="hashtable">
	<rect id="bloc_1_" x="90.5" y="287.5" fill="none" stroke="#000000" stroke-miterlimit="10" width="144" height="210"/>
	<text transform="matrix(1 0 0 1 174.4336 283.7529)" font-family="'ArialMT'" font-size="10">HASHTABLE</text>
	<rect x="99.5" y="312.5" fill="none" stroke="#000000" stroke-miterlimit="10" width="125" height="8"/>
	<rect x="99.5" y="320.5" fill="none" stroke="#000000" stroke-miterlimit="10" width="125" height="8"/>
	<rect x="99.5" y="328.5" fill="none" stroke="#000000" stroke-miterlimit="10" width="125" height="8"/>
	<rect x="99.5" y="336.5" fill="none" stroke="#000000" stroke-miterlimit="10" width="125" height="8"/>
	<rect x="99.5" y="344.5" fill="none" stroke="#000000" stroke-miterlimit="10" width="125" height="8"/>
	<rect x="99.5" y="352.5" fill="none" stroke="#000000" stroke-miterlimit="10" width="125" height="8"/>
	<rect x="99.5" y="360.5" fill="none" stroke="#000000" stroke-miterlimit="10" width="125" height="8"/>
	<rect x="99.5" y="368.5" fill="none" stroke="#000000" stroke-miterlimit="10" width="125" height="8"/>
	<rect x="99.5" y="376.5" fill="none" stroke="#000000" stroke-miterlimit="10" width="125" height="8"/>
	<rect x="99.5" y="384.5" fill="none" stroke="#000000" stroke-miterlimit="10" width="125" height="8"/>
	<rect x="99.5" y="392.5" fill="none" stroke="#000000" stroke-miterlimit="10" width="125" height="8"/>
	<rect x="99.5" y="400.5" fill="none" stroke="#000000" stroke-miterlimit="10" width="125" height="8"/>
	<rect x="99.5" y="408.5" fill="none" stroke="#000000" stroke-miterlimit="10" width="125" height="8"/>
	<rect x="99.5" y="416.5" fill="none" stroke="#000000" stroke-miterlimit="10" width="125" height="8"/>
	<polygon fill="none" stroke="#000000" stroke-miterlimit="10" points="99.5,424.5 99.5,432.5 99.5,440.5 99.5,448.5 99.5,456.5 
		99.5,464.5 99.5,472.5 224.5,472.5 224.5,464.5 224.5,456.5 224.5,448.5 224.5,440.5 224.5,432.5 224.5,424.5 	"/>
	<rect x="99.5" y="472.5" fill="none" stroke="#000000" stroke-miterlimit="10" width="125" height="8"/>
	<rect x="99.5" y="480.5" fill="none" stroke="#000000" stroke-miterlimit="10" width="125" height="8"/>
	<text transform="matrix(0 1 -1 0 160.0664 437.165)" font-family="'ArialMT'" font-size="26">...</text>
	<g id="entry_ptr">
		<circle stroke="#000000" stroke-miterlimit="10" cx="162" cy="412.5" r="2"/>
		<g>
			<g>
				<g>
					<polygon points="278.668,343.741 282.18,339.503 278.668,335.265 287.795,339.503 					"/>
				</g>
			</g>
			<g>
				<g>
					<polygon points="278.668,343.741 282.18,339.503 278.668,335.265 287.795,339.503 					"/>
				</g>
			</g>
		</g>
		<polyline fill="none" stroke="#000000" stroke-miterlimit="10" points="161,412.5 247.5,412.5 247.5,339.5 284,339.503 		"/>
	</g>
</g>
<g id="files">
	<g id="vcell">
		<text transform="matrix(1 0 0 1 296.9414 96.6338)" fill="#2E3192" font-family="'ArialMT'" font-size="8">“fichier1”</text>
		<rect x="290.5" y="87.5" fill="none" stroke="#2E3192" stroke-miterlimit="10" width="44" height="14"/>
		<rect x="289.5" y="86.5" fill="none" stroke="#22B573" stroke-miterlimit="10" width="46" height="16"/>
		<text transform="matrix(1 0 0 1 342.9414 96.6338)" fill="#2E3192" font-family="'ArialMT'" font-size="8">“fichier1”</text>
		<rect x="336.5" y="87.5" fill="none" stroke="#2E3192" stroke-miterlimit="10" width="44" height="14"/>
		<rect x="335.5" y="86.5" fill="none" stroke="#22B573" stroke-miterlimit="10" width="46" height="16"/>
		<text transform="matrix(1 0 0 1 388.9414 96.5869)" fill="#2E3192" font-family="'ArialMT'" font-size="8">“fichier2”</text>
		<rect x="382.5" y="87.5" fill="none" stroke="#2E3192" stroke-miterlimit="10" width="44" height="14"/>
		<rect x="381.5" y="86.5" fill="none" stroke="#22B573" stroke-miterlimit="10" width="46" height="16"/>
		<rect x="427.5" y="86.5" fill="none" stroke="#22B573" stroke-miterlimit="10" width="46" height="16"/>
	</g>
	<g id="arrow">
		<line fill="none" stroke="#22B573" stroke-miterlimit="10" x1="194" y1="95.5" x2="284" y2="95.5"/>
		<circle fill="#22B573" stroke="#22B573" stroke-miterlimit="10" cx="194" cy="95.5" r="2"/>
		<g>
			<g>
				<g>
					<polygon fill="#22B573" points="279.667,99.738 283.18,95.5 279.667,91.262 288.795,95.5 					"/>
				</g>
			</g>
			<g>
				<g>
					<polygon fill="#22B573" points="279.667,99.738 283.18,95.5 279.667,91.262 288.795,95.5 					"/>
				</g>
			</g>
		</g>
	</g>
	
		<text transform="matrix(1 0 0 1 432.0107 103.2529)" display="none" fill="#22B573" enable-background="new    " font-family="'ArialMT'" font-size="10">VECTOR</text>
</g>
<rect id="bloc_3_" x="535.5" y="99.5" fill="none" stroke="#000000" stroke-miterlimit="10" width="144" height="65"/>
<g id="flist_2_">
	<rect x="538.833" y="118.67" fill="none" width="66.167" height="8.833"/>
	<text transform="matrix(0.994 0 0 1 547.8223 125.1143)" font-family="'ArialMT'" font-size="9">transformation</text>
	<rect x="607.5" y="118.5" fill="none" stroke="#000000" stroke-miterlimit="10" width="63" height="9"/>
	<rect x="602" y="109.67" fill="none" width="73" height="8.833"/>
	<text transform="matrix(0.994 0 0 1 630.9365 114.6816)" font-family="'ArialMT'" font-size="7">TRANSFORM</text>
</g>
<rect x="539.003" y="142.67" fill="none" width="65.997" height="8.833"/>
<text transform="matrix(0.994 0 0 1 583.627 149.1143)" font-family="'ArialMT'" font-size="9">filtres</text>
<rect x="607.5" y="142.5" fill="none" stroke="#000000" stroke-miterlimit="10" width="63" height="9"/>
<rect x="602" y="133.67" fill="none" width="73" height="8.833"/>
<text transform="matrix(0.994 0 0 1 642.9121 138.6816)" font-family="'ArialMT'" font-size="7">ref(BOOL)</text>
<text transform="matrix(1 0 0 1 618.332 124.0674)" font-family="'ArialMT'" font-size="4">TRANSFORM_UPPER</text>
<text transform="matrix(1 0 0 1 619.4336 95.7529)" font-family="'ArialMT'" font-size="10">LNSCANOPT</text>
<g id="arrow_2_">
	<line fill="none" stroke="#000000" stroke-miterlimit="10" x1="196" y1="119.5" x2="530" y2="119.5"/>
	<circle stroke="#000000" stroke-miterlimit="10" cx="194" cy="119.5" r="2"/>
	<g>
		<g>
			<g>
				<polygon points="525.668,123.738 529.18,119.5 525.668,115.262 534.795,119.5 				"/>
			</g>
		</g>
		<g>
			<g>
				<polygon points="525.668,123.738 529.18,119.5 525.668,115.262 534.795,119.5 				"/>
			</g>
		</g>
	</g>
</g>
<text transform="matrix(1 0 0 1 716.8281 148.6338)" font-family="'ArialMT'" font-size="8">FALSE</text>
<rect id="cell0_3_" x="706.5" y="138.5" fill="none" stroke="#000000" stroke-miterlimit="10" width="46" height="16"/>
<text transform="matrix(1 0 0 1 762.8281 148.6338)" font-family="'Arial-BoldMT'" font-size="8">TRUE</text>
<rect id="cell0_4_" x="752.5" y="138.5" fill="none" stroke="#000000" stroke-miterlimit="10" width="46" height="16"/>
<text transform="matrix(1 0 0 1 808.8281 148.6338)" font-family="'ArialMT'" font-size="8">FALSE</text>
<rect id="cell0_5_" x="798.5" y="138.5" fill="none" stroke="#000000" stroke-miterlimit="10" width="46" height="16"/>
<text transform="matrix(1 0 0 1 854.8281 148.6338)" font-family="'ArialMT'" font-size="8">FALSE</text>
<rect id="cell0_6_" x="844.5" y="138.5" fill="none" stroke="#000000" stroke-miterlimit="10" width="46" height="16"/>
<text transform="matrix(1 0 0 1 900.8281 148.6338)" font-family="'ArialMT'" font-size="8">FALSE</text>
<rect id="cell0_8_" x="890.5" y="138.5" fill="none" stroke="#000000" stroke-miterlimit="10" width="46" height="16"/>
<text transform="matrix(1 0 0 1 946.8281 148.6338)" font-family="'ArialMT'" font-size="8">FALSE</text>
<rect id="cell0_12_" x="936.5" y="138.5" fill="none" stroke="#000000" stroke-miterlimit="10" width="46" height="16"/>
<g id="filtres_ptr">
	<circle stroke="#000000" stroke-miterlimit="10" cx="639" cy="147" r="2"/>
	<g>
		<g>
			<g>
				<polygon points="696.668,150.738 700.18,146.5 696.668,142.262 705.795,146.5 				"/>
			</g>
		</g>
		<g>
			<g>
				<polygon points="696.668,150.738 700.18,146.5 696.668,142.262 705.795,146.5 				"/>
			</g>
		</g>
	</g>
	<line fill="none" stroke="#000000" stroke-miterlimit="10" x1="639" y1="146.5" x2="700" y2="146.5"/>
</g>
<g id="htable">
	<g id="arrow_1_">
		<circle stroke="#000000" stroke-miterlimit="10" cx="194" cy="167.5" r="2"/>
		<g>
			<g>
				<g>
					<polygon fill="#22B573" points="80.667,302.738 84.18,298.5 80.667,294.262 89.795,298.5 					"/>
				</g>
			</g>
			<g>
				<g>
					<polygon points="80.667,302.738 84.18,298.5 80.667,294.262 89.795,298.5 					"/>
				</g>
			</g>
		</g>
		<g>
			<line fill="none" stroke="#000000" stroke-miterlimit="10" x1="193" y1="167.5" x2="249" y2="167.5"/>
			<line fill="none" stroke="#000000" stroke-miterlimit="10" x1="248.5" y1="168" x2="248.5" y2="248"/>
			<line fill="none" stroke="#000000" stroke-miterlimit="10" x1="249" y1="248.5" x2="58" y2="248.5"/>
			<line fill="none" stroke="#000000" stroke-miterlimit="10" x1="57.5" y1="248" x2="57.5" y2="298"/>
			<line fill="none" stroke="#000000" stroke-miterlimit="10" x1="57" y1="298.5" x2="85" y2="298.5"/>
		</g>
	</g>
</g>
<g id="klist_1_">
	<text transform="matrix(1 0 0 1 508.502 192.6338)" fill="#2E3192" font-family="'ArialMT'" font-size="8">“DUNE”</text>
	<rect id="var0_2_" x="500.5" y="183.5" fill="none" stroke="#2E3192" stroke-miterlimit="10" width="44" height="14"/>
	<rect id="cell0_2_" x="499.5" y="182.5" fill="none" stroke="#22B573" stroke-miterlimit="10" width="46" height="16"/>
	<text transform="matrix(1 0 0 1 554.7207 192.6338)" fill="#2E3192" font-family="'ArialMT'" font-size="8">“YAGA”</text>
	<rect id="var1_2_" x="546.5" y="183.5" fill="none" stroke="#2E3192" stroke-miterlimit="10" width="44" height="14"/>
	<rect id="cell1_1_" x="545.5" y="182.5" fill="none" stroke="#22B573" stroke-miterlimit="10" width="46" height="16"/>
	
		<text transform="matrix(1 0 0 1 492.0107 199.2529)" display="none" fill="#22B573" enable-background="new    " font-family="'ArialMT'" font-size="10">VECTOR</text>
</g>
<g id="hlist__x28_vector_x29_">
	<rect id="cell0_7_" x="289.5" y="222.5" fill="none" stroke="#22B573" stroke-miterlimit="10" width="46" height="16"/>
	<rect id="cell1_4_" x="335.5" y="222.5" fill="none" stroke="#22B573" stroke-miterlimit="10" width="46" height="16"/>
	<rect id="cell2_2_" x="381.5" y="222.5" fill="none" stroke="#22B573" stroke-miterlimit="10" width="46" height="16"/>
	<rect id="cell3_2_" x="427.5" y="222.5" fill="none" stroke="#22B573" stroke-miterlimit="10" width="46" height="16"/>
	
		<text id="type" transform="matrix(1 0 0 1 492.0107 239.2529)" display="none" fill="#22B573" enable-background="new    " font-family="'ArialMT'" font-size="10">VECTOR</text>
	<g id="arrow_3_">
		<circle fill="#22B573" stroke="#22B573" stroke-miterlimit="10" cx="194" cy="215.5" r="2"/>
		<g>
			<g>
				<g>
					<polygon fill="#22B573" points="279.667,235.738 283.18,231.5 279.667,227.262 288.795,231.5 					"/>
				</g>
			</g>
			<g>
				<g>
					<polygon fill="#22B573" points="279.667,235.738 283.18,231.5 279.667,227.262 288.795,231.5 					"/>
				</g>
			</g>
		</g>
		<g>
			<line fill="none" stroke="#22B573" stroke-miterlimit="10" x1="259" y1="231.5" x2="284" y2="231.5"/>
			<line fill="none" stroke="#22B573" stroke-miterlimit="10" x1="193" y1="215.5" x2="259" y2="215.5"/>
			<line fill="none" stroke="#22B573" stroke-miterlimit="10" x1="258.5" y1="216" x2="258.5" y2="232"/>
		</g>
	</g>
</g>
<g id="ftrack5">
	
		<text id="type_7_" transform="matrix(1 0 0 1 642.0107 862.2529)" display="none" fill="#22B573" enable-background="new    " font-family="'ArialMT'" font-size="10">VECTOR</text>
	<g id="occurences_copy_4">
	</g>
	<g id="arrow_occurences_copy_4">
	</g>
	<g id="arrow_fileid_copy_4">
	</g>
	<g id="fileid_copy_4">
	</g>
</g>
<g id="clist_3">
	<g id="clé_ptr_copy_2">
	</g>
	<g id="valeurs_copy">
		
			<text id="type_6_" transform="matrix(1 0 0 1 581.0107 720.2529)" display="none" fill="#22B573" enable-background="new    " font-family="'ArialMT'" font-size="10">VECTOR</text>
		<g id="arrow_copy_2">
		</g>
		<g id="ptr0_copy_2">
		</g>
	</g>
</g>
<g id="clist_2">
	<rect id="bloc_10_" x="738.5" y="287.5" fill="none" stroke="#000000" stroke-miterlimit="10" width="144" height="105"/>
	<g id="clé_2_">
		<rect x="741.833" y="306.67" fill="none" width="66.167" height="8.833"/>
		<text transform="matrix(0.994 0 0 1 796.5654 313.1143)" font-family="'ArialMT'" font-size="9">clé</text>
		<rect x="810.5" y="306.5" fill="none" stroke="#000000" stroke-miterlimit="10" width="63" height="9"/>
		<rect x="801" y="297.67" fill="none" width="73" height="8.833"/>
		<text transform="matrix(0.994 0 0 1 819.4932 302.6816)" font-family="'ArialMT'" font-size="7">ref(</text>
		<text transform="matrix(0.994 0 0 1 829.9297 302.6816)" font-family="'ArialMT'" font-size="7">GENERIQUE</text>
		<text transform="matrix(0.994 0 0 1 871.6846 302.6816)" font-family="'ArialMT'" font-size="7">)</text>
	</g>
	<g id="clé_1_">
		<rect x="741.833" y="330.67" fill="none" width="66.167" height="8.833"/>
		<text transform="matrix(0.994 0 0 1 788.6025 337.1143)" font-family="'ArialMT'" font-size="9">hash</text>
		<rect x="810.5" y="330.5" fill="none" stroke="#000000" stroke-miterlimit="10" width="63" height="9"/>
		<rect x="801" y="321.67" fill="none" width="73" height="8.833"/>
		<text transform="matrix(0.994 0 0 1 850.417 326.6816)" font-family="'ArialMT'" font-size="7">SIZE_T</text>
	</g>
	<rect x="742.003" y="354.67" fill="none" width="65.997" height="8.833"/>
	<text transform="matrix(0.994 0 0 1 783.6348 361.1143)" font-family="'ArialMT'" font-size="9">valeur</text>
	<rect id="valeur_valeur_3_" x="810.5" y="354.5" fill="none" stroke="#000000" stroke-miterlimit="10" width="63" height="9"/>
	<rect x="801" y="345.67" fill="none" width="73" height="8.833"/>
	<text transform="matrix(0.994 0 0 1 819.4932 350.6816)" font-family="'ArialMT'" font-size="7">ref(GENERIQUE)</text>
	<rect x="742.003" y="378.67" fill="none" width="65.997" height="8.833"/>
	<text transform="matrix(0.994 0 0 1 779.6572 385.1143)" font-family="'ArialMT'" font-size="9">suivant</text>
	<rect id="suivant_valeur_3_" x="810.5" y="378.5" fill="none" stroke="#000000" stroke-miterlimit="10" width="63" height="9"/>
	<line fill="none" stroke="#000000" stroke-miterlimit="10" x1="810.5" y1="378.5" x2="873.5" y2="387.5"/>
	<line fill="none" stroke="#000000" stroke-miterlimit="10" x1="873.5" y1="378.5" x2="810.5" y2="387.5"/>
	<rect x="801" y="369.67" fill="none" width="73" height="7.169"/>
	<text transform="matrix(0.994 0 0 1 841.5283 374.6816)" font-family="'ArialMT'" font-size="7">ref(CLIST)</text>
	<text transform="matrix(1 0 0 1 854.1602 283.7529)" font-family="'ArialMT'" font-size="10">CLIST</text>
	<g id="clé_ptr_copy">
		<polyline fill="none" stroke="#2E3192" stroke-miterlimit="10" points="843,310.5 897.5,310.5 897.5,240.5 568.5,240.5 568.5,203 
					"/>
		<circle fill="#2E3192" stroke="#2E3192" stroke-miterlimit="10" cx="842" cy="311" r="2"/>
		<g>
			<g>
				<g>
					<polygon fill="#2E3192" points="572.738,207.233 568.5,203.722 564.262,207.233 568.5,198.106 					"/>
				</g>
			</g>
			<g>
				<g>
					<polygon fill="#2E3192" points="572.738,207.233 568.5,203.722 564.262,207.233 568.5,198.106 					"/>
				</g>
			</g>
		</g>
	</g>
	<g id="valeurs_1_">
		<rect id="cell0_24_" x="738.5" y="409.5" fill="none" stroke="#22B573" stroke-miterlimit="10" width="46" height="16"/>
		
			<text id="type_2_" transform="matrix(1 0 0 1 1032.0107 402.2529)" display="none" fill="#22B573" enable-background="new    " font-family="'ArialMT'" font-size="10">VECTOR</text>
		<g id="arrow_copy">
			<circle fill="#22B573" stroke="#22B573" stroke-miterlimit="10" cx="842" cy="359" r="2"/>
			<g>
				<g>
					<g>
						<polygon fill="#22B573" points="728.668,421.738 732.18,417.5 728.668,413.262 737.795,417.5 						"/>
					</g>
				</g>
				<g>
					<g>
						<polygon fill="#22B573" points="728.668,421.738 732.18,417.5 728.668,413.262 737.795,417.5 						"/>
					</g>
				</g>
			</g>
			<polyline fill="none" stroke="#22B573" stroke-miterlimit="10" points="898,403.5 717.5,403.5 717.5,417.5 733,417.5 			"/>
			<line fill="none" stroke="#22B573" stroke-miterlimit="10" x1="842" y1="358.5" x2="899" y2="358.5"/>
			<line fill="none" stroke="#22B573" stroke-miterlimit="10" x1="898.5" y1="358" x2="898.5" y2="403"/>
		</g>
		<g id="ptr0_copy">
			<circle stroke="#000000" stroke-miterlimit="10" cx="761.5" cy="417.5" r="2"/>
			<g>
				<g>
					<g>
						<polygon points="787.668,467.738 791.18,463.5 787.668,459.262 796.795,463.5 						"/>
					</g>
				</g>
				<g>
					<g>
						<polygon points="787.668,467.738 791.18,463.5 787.668,459.262 796.795,463.5 						"/>
					</g>
				</g>
			</g>
			<polyline fill="none" stroke="#000000" stroke-miterlimit="10" points="792,463.5 761.5,463.5 761.5,418 			"/>
		</g>
	</g>
	<text transform="matrix(1 0 0 1 838.5 337.0049)" font-family="'MyriadPro-Regular'" font-size="6">12</text>
</g>
<g id="clist_1">
	<rect id="bloc_9_" x="288.5" y="287.5" fill="#FFFFFF" stroke="#000000" stroke-miterlimit="10" width="144" height="105"/>
	<rect x="291.833" y="306.67" fill="none" width="66.167" height="8.833"/>
	<text transform="matrix(0.994 0 0 1 346.5654 313.1143)" font-family="'ArialMT'" font-size="9">clé</text>
	<rect x="360.5" y="306.5" fill="none" stroke="#000000" stroke-miterlimit="10" width="63" height="9"/>
	<rect x="351" y="297.67" fill="none" width="73" height="8.833"/>
	<text transform="matrix(0.994 0 0 1 391.5322 302.6816)" fill="#2E3192" font-family="'ArialMT'" font-size="7">ref(CHAR)</text>
	<rect x="291.833" y="330.67" fill="none" width="66.167" height="8.833"/>
	<text transform="matrix(0.994 0 0 1 338.6025 337.1143)" font-family="'ArialMT'" font-size="9">hash</text>
	<rect x="360.5" y="330.5" fill="none" stroke="#000000" stroke-miterlimit="10" width="63" height="9"/>
	<rect x="351" y="321.67" fill="none" width="73" height="8.833"/>
	<text transform="matrix(0.994 0 0 1 400.416 326.6816)" font-family="'ArialMT'" font-size="7">SIZE_T</text>
	<rect x="292.003" y="354.67" fill="none" width="65.997" height="8.833"/>
	<text transform="matrix(0.994 0 0 1 333.6348 361.1143)" font-family="'ArialMT'" font-size="9">valeur</text>
	<rect id="valeur_valeur_1_" x="360.5" y="354.5" fill="none" stroke="#000000" stroke-miterlimit="10" width="63" height="9"/>
	<rect x="310.5" y="345.67" fill="none" width="113.5" height="8.833"/>
	<text transform="matrix(0.994 0 0 1 343.2041 350.6816)" font-family="'ArialMT'" font-size="7">ref(</text>
	<text transform="matrix(0.994 0 0 1 353.6406 350.6816)" fill="#22B573" font-family="'ArialMT'" font-size="7">DYNA&lt;</text>
	<text transform="matrix(0.994 0 0 1 377.0361 350.6816)" font-family="'ArialMT'" font-size="7">ref(FTRACK)</text>
	<text transform="matrix(0.994 0 0 1 417.6211 350.6816)" fill="#22B573" font-family="'ArialMT'" font-size="7">&gt;</text>
	<text transform="matrix(0.994 0 0 1 421.6846 350.6816)" font-family="'ArialMT'" font-size="7">)</text>
	<rect x="292.003" y="378.67" fill="none" width="65.997" height="8.833"/>
	<text transform="matrix(0.994 0 0 1 329.6563 385.1143)" font-family="'ArialMT'" font-size="9">suivant</text>
	<rect id="suivant_valeur_1_" x="360.5" y="378.5" fill="none" stroke="#000000" stroke-miterlimit="10" width="63" height="9"/>
	<g id="suivant_ptr">
		<line fill="none" stroke="#000000" stroke-miterlimit="10" x1="393" y1="382.5" x2="734" y2="382.5"/>
		<circle stroke="#000000" stroke-miterlimit="10" cx="392" cy="383" r="2"/>
		<g>
			<g>
				<g>
					<polygon points="728.668,386.738 732.18,382.5 728.668,378.262 737.795,382.5 					"/>
				</g>
			</g>
			<g>
				<g>
					<polygon points="728.668,386.738 732.18,382.5 728.668,378.262 737.795,382.5 					"/>
				</g>
			</g>
		</g>
	</g>
	<g id="clé_ptr">
		<line fill="none" stroke="#2E3192" stroke-miterlimit="10" x1="393" y1="310.5" x2="522" y2="310.5"/>
		<circle fill="#2E3192" stroke="#2E3192" stroke-miterlimit="10" cx="392" cy="311" r="2"/>
		<g>
			<g>
				<g>
					<polygon points="526.738,207.233 522.5,203.722 518.262,207.233 522.5,198.106 					"/>
				</g>
			</g>
			<g>
				<g>
					<polygon fill="#2E3192" points="526.738,207.233 522.5,203.722 518.262,207.233 522.5,198.106 					"/>
				</g>
			</g>
		</g>
		<line fill="none" stroke="#2E3192" stroke-miterlimit="10" x1="522.5" y1="311" x2="522.5" y2="203"/>
	</g>
	<rect x="351" y="369.67" fill="none" width="73" height="7.169"/>
	<text transform="matrix(0.994 0 0 1 391.5283 374.6816)" font-family="'ArialMT'" font-size="7">ref(CLIST)</text>
	<text transform="matrix(1 0 0 1 404.1602 283.7529)" font-family="'ArialMT'" font-size="10">CLIST</text>
	<g id="valeurs">
		<rect id="cell0_19_" x="288.5" y="409.5" fill="#FFFFFF" stroke="#22B573" stroke-miterlimit="10" width="46" height="16"/>
		<rect id="cell1_8_" x="334.5" y="409.5" fill="#FFFFFF" stroke="#22B573" stroke-miterlimit="10" width="46" height="16"/>
		<rect id="cell2_1_" x="380.5" y="409.5" fill="#FFFFFF" stroke="#22B573" stroke-miterlimit="10" width="46" height="16"/>
		<rect id="cell3_1_" x="426.5" y="409.5" fill="#FFFFFF" stroke="#22B573" stroke-miterlimit="10" width="46" height="16"/>
		
			<text id="type_1_" transform="matrix(1 0 0 1 602.0107 402.2529)" display="none" fill="#22B573" enable-background="new    " font-family="'ArialMT'" font-size="10">VECTOR</text>
		<g id="arrow_4_">
			<circle fill="#22B573" stroke="#22B573" stroke-miterlimit="10" cx="392" cy="359" r="2"/>
			<g>
				<g>
					<g>
						<polygon fill="#22B573" points="278.667,421.738 282.18,417.5 278.667,413.262 287.795,417.5 						"/>
					</g>
				</g>
				<g>
					<g>
						<polygon fill="#22B573" points="278.667,421.738 282.18,417.5 278.667,413.262 287.795,417.5 						"/>
					</g>
				</g>
			</g>
			<polyline fill="none" stroke="#22B573" stroke-miterlimit="10" points="448,403.5 267.5,403.5 267.5,417.5 283,417.5 			"/>
			<line fill="none" stroke="#22B573" stroke-miterlimit="10" x1="392" y1="358.5" x2="449" y2="358.5"/>
			<line fill="none" stroke="#22B573" stroke-miterlimit="10" x1="448.5" y1="358" x2="448.5" y2="403"/>
		</g>
		<g id="ptr0">
			<circle stroke="#000000" stroke-miterlimit="10" cx="403.5" cy="417.5" r="2"/>
			<g>
				<g>
					<g>
						<polygon points="429.668,467.738 433.18,463.5 429.668,459.262 438.795,463.5 						"/>
					</g>
				</g>
				<g>
					<g>
						<polygon points="429.668,467.738 433.18,463.5 429.668,459.262 438.795,463.5 						"/>
					</g>
				</g>
			</g>
			<polyline fill="none" stroke="#000000" stroke-miterlimit="10" points="434,463.5 403.5,463.5 403.5,418 			"/>
		</g>
		<g id="ptr1">
			<circle stroke="#000000" stroke-miterlimit="10" cx="357.5" cy="417.5" r="2"/>
			<g>
				<g>
					<g>
						<polygon points="429.668,557.738 433.18,553.5 429.668,549.262 438.795,553.5 						"/>
					</g>
				</g>
				<g>
					<g>
						<polygon points="429.668,557.738 433.18,553.5 429.668,549.262 438.795,553.5 						"/>
					</g>
				</g>
			</g>
			<polyline fill="none" stroke="#000000" stroke-miterlimit="10" points="438,553.5 357.5,553.5 357.5,418 			"/>
		</g>
		<g id="ptr2_1_">
			<circle stroke="#000000" stroke-miterlimit="10" cx="311.5" cy="417.5" r="2"/>
			<g>
				<g>
					<g>
						<polygon points="429.668,647.738 433.18,643.5 429.668,639.262 438.795,643.5 						"/>
					</g>
				</g>
				<g>
					<g>
						<polygon points="429.668,647.738 433.18,643.5 429.668,639.262 438.795,643.5 						"/>
					</g>
				</g>
			</g>
			<polyline fill="none" stroke="#000000" stroke-miterlimit="10" points="433,643.5 311.5,643.5 311.5,418 			"/>
		</g>
	</g>
	<text transform="matrix(1 0 0 1 388.5 337.0049)" font-family="'MyriadPro-Regular'" font-size="6">12</text>
</g>
<g id="lntracker">
	<rect id="bloc_8_" x="90.5" y="71.5" fill="none" stroke="#000000" stroke-miterlimit="10" width="144" height="162"/>
	<g id="flist_3_">
		<rect x="93.833" y="90.67" fill="none" width="66.167" height="8.833"/>
		<text transform="matrix(0.994 0 0 1 96.3623 97.1143)" font-family="'ArialMT'" font-size="9">liste des fichiers</text>
		<rect x="162.5" y="90.5" fill="none" stroke="#000000" stroke-miterlimit="10" width="63" height="9"/>
		<rect x="107.917" y="81.67" fill="none" width="118.083" height="8.833"/>
		<text transform="matrix(0.994 0 0 1 153.3203 86.6816)" font-family="'ArialMT'" font-size="7">ref(</text>
		<text transform="matrix(0.994 0 0 1 163.7573 86.6816)" fill="#22B573" font-family="'ArialMT'" font-size="7">DYNA&lt;</text>
		<text transform="matrix(0.994 0 0 1 187.1519 86.6816)" fill="#2E3192" font-family="'ArialMT'" font-size="7">ref(CHAR)</text>
		<text transform="matrix(0.994 0 0 1 219.6211 86.6816)" fill="#22B573" font-family="'ArialMT'" font-size="7">&gt;</text>
		<text transform="matrix(0.994 0 0 1 223.6846 86.6816)" font-family="'ArialMT'" font-size="7">)</text>
	</g>
	<g id="opts_2_">
		<rect x="94.003" y="114.67" fill="none" width="65.997" height="8.833"/>
		<text transform="matrix(0.994 0 0 1 131.1538 121.1143)" font-family="'ArialMT'" font-size="9">options</text>
		<rect x="162.5" y="114.5" fill="none" stroke="#000000" stroke-miterlimit="10" width="63" height="9"/>
		<rect x="153" y="105.67" fill="none" width="73" height="8.833"/>
		<text transform="matrix(0.994 0 0 1 170.7183 110.6816)" font-family="'ArialMT'" font-size="7">ref(LNSCANOPT)</text>
	</g>
	<rect x="94.003" y="138.67" fill="none" width="65.997" height="8.833"/>
	<text transform="matrix(0.994 0 0 1 99.3457 145.1143)" font-family="'ArialMT'" font-size="9">tri des résultats</text>
	<rect x="162.5" y="138.5" fill="none" stroke="#000000" stroke-miterlimit="10" width="63" height="9"/>
	<rect x="153" y="129.67" fill="none" width="73" height="7.169"/>
	<text transform="matrix(0.994 0 0 1 194.3027 134.6816)" font-family="'ArialMT'" font-size="7">SORTING</text>
	<g id="ht_2_">
		<rect x="94.003" y="162.67" fill="none" width="65.997" height="8.833"/>
		<text transform="matrix(0.994 0 0 1 98.9834 168.3975)" font-family="'ArialMT'" font-size="8">table de hashage</text>
		<rect x="162.5" y="162.5" fill="none" stroke="#000000" stroke-miterlimit="10" width="63" height="9"/>
		<rect x="153" y="153.67" fill="none" width="73" height="8.833"/>
		<text transform="matrix(0.994 0 0 1 171.8735 158.6816)" font-family="'ArialMT'" font-size="7">ref(HASHTABLE)</text>
	</g>
	<g id="klist_3_">
		<rect x="94.003" y="186.67" fill="none" width="65.997" height="8.833"/>
		<text transform="matrix(0.994 0 0 1 108.7891 193.1143)" font-family="'ArialMT'" font-size="9">liste des clés</text>
		<rect x="162.5" y="186.5" fill="none" stroke="#000000" stroke-miterlimit="10" width="63" height="9"/>
		<rect x="153" y="177.67" fill="none" width="73" height="8.833"/>
		<text transform="matrix(0.994 0 0 1 153.3203 182.6816)" font-family="'ArialMT'" font-size="7">ref(</text>
		<text transform="matrix(0.994 0 0 1 163.7573 182.6816)" fill="#22B573" font-family="'ArialMT'" font-size="7">DYNA&lt;</text>
		<text transform="matrix(0.994 0 0 1 187.1519 182.6816)" fill="#2E3192" font-family="'ArialMT'" font-size="7">ref(CHAR)</text>
		<text transform="matrix(0.994 0 0 1 219.6211 182.6816)" fill="#22B573" font-family="'ArialMT'" font-size="7">&gt;</text>
		<text transform="matrix(0.994 0 0 1 223.6846 182.6816)" font-family="'ArialMT'" font-size="7">)</text>
	</g>
	<g id="klist_arrow">
		<line fill="none" stroke="#22B573" stroke-miterlimit="10" x1="194" y1="191.5" x2="494" y2="191.5"/>
		<circle fill="#22B573" stroke="#22B573" stroke-miterlimit="10" cx="194" cy="191.5" r="2"/>
		<g>
			<g>
				<g>
					<polygon fill="#22B573" points="489.667,195.738 493.18,191.5 489.667,187.262 498.795,191.5 					"/>
				</g>
			</g>
			<g>
				<g>
					<polygon fill="#22B573" points="489.667,195.738 493.18,191.5 489.667,187.262 498.795,191.5 					"/>
				</g>
			</g>
		</g>
	</g>
	<g id="vlist_2_">
		<rect x="162.5" y="210.5" fill="none" stroke="#000000" stroke-miterlimit="10" width="63" height="9"/>
		<rect x="94.003" y="210.67" fill="none" width="65.997" height="8.833"/>
		<text transform="matrix(0.994 0 0 1 95.8599 217.1143)" font-family="'ArialMT'" font-size="9">liste des valeurs</text>
		<rect x="123" y="201.67" fill="none" width="103" height="8.833"/>
		<text transform="matrix(0.994 0 0 1 145.2041 206.6816)" font-family="'ArialMT'" font-size="7">ref(</text>
		<text transform="matrix(0.994 0 0 1 155.6411 206.6816)" fill="#22B573" font-family="'ArialMT'" font-size="7">DYNA&lt;</text>
		<text transform="matrix(0.994 0 0 1 179.0356 206.6816)" font-family="'ArialMT'" font-size="7">ref(FTRACK)</text>
		<text transform="matrix(0.994 0 0 1 219.6211 206.6816)" fill="#22B573" font-family="'ArialMT'" font-size="7">&gt;</text>
		<text transform="matrix(0.994 0 0 1 223.6846 206.6816)" font-family="'ArialMT'" font-size="7">)</text>
	</g>
	<text transform="matrix(1 0 0 1 169.9951 144.6006)" font-family="'ArialMT'" font-size="6">SORTING_PLAIN</text>
	<text transform="matrix(1 0 0 1 174.4336 67.7529)" font-family="'ArialMT'" font-size="10">LNTRACKER</text>
</g>
<g id="FRAME">
	<rect x="-1" y="1" fill="none" stroke="#C1272D" stroke-width="10" stroke-miterlimit="10" width="1120" height="759"/>
</g>
</svg>
